<svg width="857" height="608" viewBox="0 0 857 608" fill="none" xmlns="http://www.w3.org/2000/svg">
<path d="M453.665 84.3463C245.014 68.3347 144.045 199.097 119.641 266.479C31.7884 317.716 47.9558 383.898 67.021 410.584C108.965 481.969 258.741 620.737 522.3 604.725C785.858 588.713 790.739 389.902 760.234 292.498C744.982 229.785 662.315 100.358 453.665 84.3463Z" stroke="black" stroke-opacity="0.19" stroke-width="3" stroke-linecap="round" stroke-linejoin="round" stroke-dasharray="33 33"/>
<path fill-rule="evenodd" clip-rule="evenodd" d="M465 134C502.003 134 532 104.003 532 67C532 29.9969 502.003 0 465 0C427.997 0 398 29.9969 398 67C398 88.767 408.38 108.11 424.46 120.348L421.564 135.704C420.851 139.486 424.499 142.622 428.132 141.349L452.444 132.825C456.511 133.596 460.708 134 465 134Z" fill="#F5ED0A"/>
<path fill-rule="evenodd" clip-rule="evenodd" d="M743 327C780.003 327 810 297.003 810 260C810 222.997 780.003 193 743 193C705.997 193 676 222.997 676 260C676 281.767 686.38 301.11 702.46 313.348L699.564 328.704C698.851 332.486 702.499 335.622 706.132 334.349L730.444 325.825C734.511 326.596 738.708 327 743 327Z" fill="#F27D21"/>
<path fill-rule="evenodd" clip-rule="evenodd" d="M609 598C646.003 598 676 568.003 676 531C676 493.997 646.003 464 609 464C571.997 464 542 493.997 542 531C542 552.767 552.38 572.11 568.46 584.348L565.564 599.704C564.851 603.486 568.499 606.622 572.132 605.349L596.444 596.825C600.511 597.596 604.708 598 609 598Z" fill="#F5ED0A"/>
<path fill-rule="evenodd" clip-rule="evenodd" d="M175 572C212.003 572 242 542.003 242 505C242 467.997 212.003 438 175 438C137.997 438 108 467.997 108 505C108 526.767 118.38 546.11 134.46 558.348L131.564 573.704C130.851 577.486 134.499 580.622 138.132 579.349L162.444 570.825C166.511 571.596 170.708 572 175 572Z" fill="#CD95C7"/>
<path fill-rule="evenodd" clip-rule="evenodd" d="M114 259C151.003 259 181 229.003 181 192C181 154.997 151.003 125 114 125C76.9969 125 47 154.997 47 192C47 213.767 57.38 233.11 73.4601 245.348L70.5641 260.704C69.8507 264.486 73.4994 267.622 77.1316 266.349L101.444 257.825C105.511 258.596 109.708 259 114 259Z" fill="#F5ED0A"/>
<circle cx="472.5" cy="68.5" r="68.5" fill="white"/>
<circle cx="750.5" cy="261.5" r="68.5" fill="white"/>
<circle cx="618.5" cy="532.5" r="68.5" fill="white"/>
<circle cx="182.5" cy="506.5" r="68.5" fill="white"/>
<circle cx="123.5" cy="193.5" r="68.5" fill="white"/>
</svg>
