<svg width="35" height="34" viewBox="0 0 35 34" fill="none" xmlns="http://www.w3.org/2000/svg">
<path d="M34.7226 25.7233L29.458 17.6976C30.5353 15.951 31.0965 13.9929 31.0898 12.0042C31.0898 8.82049 29.6572 5.76717 27.107 3.51595C24.5568 1.26472 21.098 0 17.4914 0C13.8849 0 10.4261 1.26472 7.87588 3.51595C5.32568 5.76717 3.893 8.82049 3.893 12.0042C3.88631 13.9929 4.44753 15.951 5.52481 17.6976L0.260273 25.7233C0.0894399 25.9845 -0.000336591 26.2808 9.48297e-07 26.5824C0.000338487 26.884 0.0907777 27.1802 0.262195 27.4411C0.433612 27.702 0.679943 27.9184 0.976338 28.0684C1.27273 28.2185 1.60871 28.2968 1.95036 28.2956H7.52572L10.362 32.5142C10.4576 32.6541 10.5753 32.7811 10.7116 32.8915C11.0718 33.1979 11.5519 33.3699 12.0521 33.3717H12.324C12.6173 33.3363 12.8975 33.2421 13.1433 33.0965C13.3891 32.9509 13.5939 32.7576 13.7421 32.5314L17.4914 26.838L21.2407 32.5828C21.3911 32.8058 21.5969 32.9958 21.8425 33.1384C22.0882 33.2809 22.3673 33.3724 22.6588 33.406H22.9308C23.4377 33.4087 23.9257 33.2364 24.2906 32.9258C24.4213 32.8217 24.5327 32.7002 24.6209 32.5657L27.4571 28.3471H33.0325C33.3748 28.3483 33.7114 28.2696 34.0082 28.119C34.305 27.9685 34.5514 27.7513 34.7226 27.4896C34.9041 27.2229 35 26.9176 35 26.6065C35 26.2953 34.9041 25.99 34.7226 25.7233ZM12.0326 28.3471L10.3037 25.7919C10.1334 25.5384 9.89206 25.3279 9.60283 25.1807C9.31359 25.0335 8.98628 24.9546 8.65244 24.9516H5.29169L8.06966 20.6987C9.98261 22.3259 12.3936 23.4228 15.0049 23.8541L12.0326 28.3471ZM17.4914 20.5786C15.5703 20.5786 13.6924 20.0757 12.0951 19.1336C10.4978 18.1914 9.2528 16.8523 8.51763 15.2855C7.78246 13.7187 7.59011 11.9947 7.9649 10.3314C8.33968 8.66814 9.26477 7.14032 10.6232 5.94116C11.9816 4.74201 13.7123 3.92537 15.5965 3.59453C17.4806 3.26368 19.4336 3.43348 21.2085 4.08246C22.9833 4.73144 24.5003 5.83045 25.5676 7.2405C26.6349 8.65056 27.2046 10.3083 27.2046 12.0042C27.2046 14.2783 26.1812 16.4592 24.3597 18.0672C22.5381 19.6753 20.0675 20.5786 17.4914 20.5786ZM26.3304 24.9516C25.9966 24.9546 25.6693 25.0335 25.38 25.1807C25.0908 25.3279 24.8494 25.5384 24.6792 25.7919L22.9502 28.3471L19.9974 23.8026C22.5995 23.3626 25.0016 22.2666 26.9132 20.6472L29.6912 24.9001L26.3304 24.9516Z" fill="white"/>
</svg>
