<?xml version="1.0" standalone="no"?>
<!DOCTYPE svg PUBLIC "-//W3C//DTD SVG 20010904//EN"
 "http://www.w3.org/TR/2001/REC-SVG-20010904/DTD/svg10.dtd">
<svg version="1.0" xmlns="http://www.w3.org/2000/svg"
 width="800.000000pt" height="800.000000pt" viewBox="0 0 800.000000 800.000000"
 preserveAspectRatio="xMidYMid meet">
<metadata>
Created by potrace 1.14, written by Peter Selinger 2001-2017
</metadata>
<g transform="translate(0.000000,800.000000) scale(0.100000,-0.100000)"
fill="#000000" stroke="none">
<path d="M3790 6778 c0 -9 -5 -20 -12 -24 -7 -4 -8 -3 -4 4 4 7 3 12 -3 12 -5
0 -13 -5 -16 -10 -5 -8 -11 -7 -21 1 -11 9 -14 8 -14 -2 0 -11 -2 -11 -10 1
-8 12 -10 12 -10 1 0 -8 -3 -11 -7 -8 -3 4 -13 1 -21 -6 -13 -9 -14 -9 -8 1 4
6 2 12 -3 12 -6 0 -11 -5 -11 -11 0 -6 -7 -8 -16 -5 -9 4 -23 1 -30 -5 -8 -6
-14 -7 -14 -2 0 5 -7 10 -15 10 -8 0 -12 -4 -9 -8 2 -4 -4 -8 -13 -8 -44 -1
-59 -4 -72 -15 -12 -9 -13 -8 -6 4 7 12 6 13 -6 3 -8 -6 -37 -15 -64 -19 -28
-3 -52 -10 -55 -14 -3 -4 -15 -6 -27 -5 -13 1 -23 -2 -23 -7 0 -5 -4 -6 -10
-3 -5 3 -10 1 -10 -6 0 -7 -3 -9 -7 -6 -3 4 -13 1 -21 -6 -9 -6 -13 -7 -9 -1
7 12 -29 12 -40 -1 -5 -4 -2 -5 5 -1 6 4 12 2 12 -5 0 -6 -8 -9 -20 -6 -11 3
-20 1 -20 -3 0 -5 -11 -7 -25 -6 -14 2 -22 -1 -18 -7 4 -6 -2 -8 -15 -5 -12 4
-20 2 -16 -3 3 -5 -6 -9 -20 -9 -13 0 -26 -4 -28 -10 -1 -5 -12 -11 -23 -13
-11 -2 -30 -9 -42 -15 -13 -7 -23 -10 -23 -6 0 4 -8 0 -18 -9 -10 -10 -21 -14
-25 -11 -3 3 -20 -4 -37 -16 -17 -12 -34 -20 -37 -17 -3 3 -14 -3 -26 -14 -11
-10 -29 -19 -39 -19 -10 0 -18 -5 -18 -11 0 -6 -7 -9 -15 -5 -9 3 -15 0 -15
-8 0 -7 -7 -13 -15 -14 -8 -1 -22 -3 -30 -4 -8 -1 -12 -5 -10 -9 3 -3 -3 -13
-12 -20 -12 -10 -14 -10 -9 -1 4 6 4 12 1 12 -4 0 -13 -6 -20 -12 -35 -32 -45
-38 -60 -38 -8 0 -15 -4 -15 -10 0 -5 -7 -10 -16 -10 -8 0 -12 -4 -9 -10 3 -5
-2 -10 -12 -10 -10 0 -33 -13 -50 -29 -18 -16 -34 -26 -37 -23 -3 3 -6 0 -6
-7 0 -7 -4 -10 -8 -7 -5 3 -16 -3 -25 -12 -22 -24 -45 -42 -53 -42 -4 0 -15
-10 -25 -22 -11 -11 -19 -18 -19 -14 0 4 -11 -4 -24 -18 -13 -15 -27 -26 -31
-26 -4 0 -25 -19 -46 -41 -22 -23 -39 -38 -39 -35 0 4 -6 1 -14 -6 -8 -7 -12
-16 -9 -20 2 -5 -3 -8 -11 -8 -8 0 -20 -9 -26 -20 -6 -11 -15 -18 -21 -15 -5
4 -8 1 -7 -7 2 -7 -4 -12 -12 -10 -8 2 -12 1 -8 -3 3 -4 -16 -30 -42 -57 -27
-28 -46 -56 -43 -61 3 -6 1 -7 -6 -3 -6 4 -14 0 -17 -8 -3 -9 -10 -13 -15 -10
-5 3 -9 -1 -9 -9 0 -8 -15 -30 -34 -50 -18 -20 -31 -38 -28 -41 3 -4 -2 -6
-12 -6 -9 0 -14 -4 -11 -10 3 -5 2 -10 -3 -10 -6 0 -13 -11 -16 -25 -4 -14
-11 -23 -16 -20 -6 3 -10 0 -10 -8 0 -8 -7 -18 -16 -21 -9 -4 -14 -9 -11 -13
4 -3 -3 -14 -15 -24 -11 -11 -18 -19 -14 -19 4 0 -4 -15 -17 -32 -13 -18 -27
-41 -30 -50 -4 -10 -11 -18 -17 -18 -6 0 -8 -4 -5 -10 3 -5 1 -10 -4 -10 -6 0
-11 -7 -11 -15 0 -8 -5 -15 -11 -15 -5 0 -7 -4 -4 -10 3 -5 1 -10 -4 -10 -6 0
-11 -5 -11 -11 0 -6 -9 -23 -20 -39 -11 -15 -17 -30 -13 -34 3 -3 1 -6 -6 -6
-7 0 -9 -4 -6 -10 3 -5 1 -10 -5 -10 -7 0 -9 -7 -6 -16 3 -8 2 -13 -2 -10 -7
4 -54 -85 -56 -106 -1 -4 -7 -13 -13 -19 -7 -7 -13 -23 -13 -36 0 -13 -5 -23
-11 -23 -6 0 -8 -7 -5 -16 3 -8 2 -12 -4 -9 -6 3 -10 -3 -10 -14 0 -11 -7 -27
-16 -35 -11 -11 -12 -16 -3 -16 10 0 10 -3 1 -12 -7 -7 -12 -20 -12 -30 0 -10
-5 -18 -11 -18 -6 0 -9 -7 -5 -15 3 -8 0 -15 -7 -15 -9 0 -8 -3 1 -9 11 -7 10
-9 -3 -15 -9 -3 -14 -10 -10 -15 3 -5 0 -13 -6 -16 -5 -4 -8 -13 -5 -21 3 -7
1 -16 -4 -19 -6 -4 -10 -16 -10 -29 0 -12 -6 -28 -12 -35 -11 -11 -10 -12 2
-6 13 8 13 7 1 -8 -7 -9 -10 -17 -5 -17 5 0 2 -5 -6 -10 -13 -9 -13 -10 0 -10
12 -1 12 -2 -2 -10 -10 -6 -14 -18 -11 -30 3 -13 0 -20 -8 -20 -11 0 -11 -2 1
-10 12 -8 12 -10 1 -10 -8 0 -11 -3 -8 -7 4 -3 1 -13 -6 -21 -10 -13 -9 -14 3
-7 13 8 13 7 1 -8 -7 -9 -10 -17 -5 -17 5 0 2 -5 -6 -10 -12 -8 -12 -10 -1
-10 10 0 10 -6 -4 -26 -9 -15 -12 -23 -6 -20 6 4 11 3 11 -3 0 -5 -5 -13 -10
-16 -6 -3 -8 -17 -6 -30 3 -14 0 -27 -5 -31 -5 -3 -7 -10 -3 -15 3 -5 0 -17
-8 -26 -9 -12 -9 -15 0 -9 6 4 12 3 12 -3 0 -5 -5 -13 -10 -16 -8 -5 -8 -11 0
-20 8 -10 8 -15 0 -20 -6 -4 -9 -13 -6 -21 3 -8 2 -14 -3 -14 -4 0 -6 -11 -3
-25 2 -14 -2 -33 -9 -42 -10 -12 -10 -14 -1 -9 15 9 16 -6 0 -22 -9 -9 -9 -12
3 -12 12 0 12 -2 -1 -10 -8 -5 -10 -10 -4 -10 6 0 11 -7 11 -15 0 -8 -4 -12
-8 -9 -10 6 -5 -38 6 -55 5 -10 4 -12 -3 -7 -16 10 -15 -26 1 -43 9 -11 9 -12
0 -7 -10 5 -12 -1 -10 -23 2 -17 7 -34 10 -38 4 -3 7 -11 7 -17 0 -6 -5 -4
-10 4 -8 13 -10 12 -10 -3 0 -10 5 -28 11 -39 8 -15 8 -19 0 -14 -6 4 -11 2
-11 -3 0 -6 6 -11 13 -11 7 0 8 -3 2 -8 -5 -4 -11 -13 -13 -21 -3 -12 -1 -12
14 0 13 10 16 11 10 1 -12 -21 -13 -72 -2 -72 6 0 4 -5 -4 -10 -12 -8 -12 -10
5 -10 13 0 16 -3 8 -8 -13 -8 -12 -29 1 -51 7 -10 6 -12 -4 -6 -10 6 -11 4 -4
-6 10 -17 13 -30 16 -86 2 -24 6 -43 10 -43 3 0 4 -10 0 -22 -3 -11 -1 -19 4
-16 5 4 9 -10 9 -30 0 -21 4 -42 10 -48 6 -6 10 -27 10 -45 -1 -19 2 -36 6
-39 4 -3 9 -18 10 -35 2 -16 7 -32 11 -35 3 -3 8 -21 11 -40 2 -19 8 -34 14
-33 5 1 8 -12 7 -28 -1 -16 2 -29 7 -29 5 0 9 -13 9 -29 0 -17 5 -33 11 -36 6
-4 8 -13 5 -21 -3 -8 -1 -14 4 -14 5 0 14 -10 21 -21 9 -17 8 -20 -3 -13 -10
6 -11 5 -1 -7 6 -8 13 -23 15 -34 1 -10 11 -27 20 -37 10 -10 15 -24 12 -33
-4 -8 -1 -15 5 -15 6 0 11 -9 11 -20 0 -11 5 -20 11 -20 5 0 7 -4 4 -10 -3 -5
-1 -10 4 -10 6 0 10 -3 9 -7 -5 -18 14 -53 25 -47 7 4 9 4 5 -1 -4 -4 -2 -15
5 -23 10 -13 9 -14 -3 -7 -8 4 -6 -3 6 -16 22 -25 38 -58 36 -71 -1 -5 3 -8 8
-8 6 0 10 -7 10 -15 0 -8 4 -15 8 -15 4 0 14 -16 21 -36 7 -19 15 -33 18 -30
9 9 34 -45 26 -58 -3 -6 -3 -8 2 -4 4 4 21 -12 38 -35 17 -23 34 -45 39 -48 6
-3 10 -10 10 -15 1 -18 33 -60 95 -130 12 -13 20 -24 18 -24 -2 0 7 -11 20
-25 14 -13 25 -29 25 -35 0 -5 7 -10 15 -10 8 0 15 -5 15 -10 0 -13 178 -190
191 -190 6 0 7 -5 4 -10 -6 -10 9 -15 30 -10 6 1 7 -2 3 -6 -7 -7 40 -54 54
-54 4 0 10 -9 13 -20 4 -11 10 -18 15 -15 4 3 22 -8 39 -25 18 -16 35 -30 39
-32 4 -2 6 -7 4 -11 -1 -5 2 -6 7 -3 5 4 20 -4 32 -16 12 -13 18 -16 14 -8 -4
8 4 3 19 -12 15 -16 31 -28 36 -28 5 0 15 -6 22 -13 7 -6 25 -18 40 -26 15 -8
25 -18 22 -23 -3 -5 -2 -7 3 -6 13 4 73 -23 73 -33 0 -5 9 -9 21 -9 11 0 17
-4 14 -10 -3 -5 3 -10 14 -10 12 0 21 -5 21 -11 0 -5 5 -7 10 -4 6 3 10 1 10
-5 0 -6 5 -8 10 -5 6 3 10 1 10 -4 0 -6 8 -11 19 -11 10 0 24 -7 31 -15 7 -9
19 -14 27 -11 8 3 16 -1 19 -9 4 -8 10 -12 15 -9 5 3 9 0 9 -6 0 -6 4 -9 9 -5
5 3 16 -2 24 -10 9 -8 25 -15 36 -15 12 0 21 -5 21 -11 0 -5 4 -8 9 -4 5 3 12
1 16 -5 4 -6 11 -8 16 -5 5 4 9 1 9 -6 0 -7 3 -9 6 -6 4 3 15 2 26 -4 11 -6
29 -12 40 -14 12 -3 25 -10 29 -17 4 -7 11 -9 15 -5 4 4 18 0 32 -9 17 -11 22
-12 16 -3 -7 12 -5 12 9 1 9 -8 22 -10 28 -6 8 5 9 3 4 -6 -6 -10 -1 -12 18
-8 17 3 24 1 20 -5 -4 -6 0 -8 10 -4 9 3 19 2 22 -4 4 -5 11 -7 16 -4 5 4 9 1
9 -5 0 -7 6 -10 14 -7 8 3 17 3 20 -1 7 -6 8 -6 71 -17 22 -4 43 -12 47 -19 5
-8 8 -7 8 3 0 10 3 11 13 2 8 -6 17 -8 20 -4 4 3 7 0 7 -8 0 -11 2 -11 10 1 5
8 10 10 10 3 0 -6 9 -9 20 -6 11 3 20 0 20 -6 0 -13 22 -10 32 4 5 6 8 5 8 -3
0 -7 11 -11 28 -11 43 3 64 0 59 -8 -3 -5 6 -8 19 -8 13 0 24 5 24 10 0 6 5 3
10 -5 9 -13 10 -13 10 0 0 13 2 13 9 1 8 -13 12 -13 27 0 11 9 15 9 10 2 -4
-8 -1 -13 9 -13 10 0 13 -5 9 -13 -5 -8 -2 -8 9 2 11 9 17 10 17 2 0 -6 8 -11
18 -11 14 0 15 2 2 10 -13 8 -13 10 2 10 9 0 19 -6 21 -12 4 -10 8 -9 16 2 7
10 11 11 11 3 0 -17 42 -17 59 -1 11 10 12 10 7 1 -9 -17 172 -17 193 0 12 9
13 9 7 0 -4 -8 -1 -13 9 -13 9 0 13 5 10 10 -3 6 -1 10 4 10 6 0 11 -4 11 -10
0 -5 7 -7 15 -4 14 6 13 8 -2 21 -17 13 -16 13 3 4 12 -6 31 -8 43 -6 15 3 19
0 15 -8 -4 -7 2 -3 14 7 15 13 22 15 22 6 0 -10 4 -9 17 1 15 12 16 12 8 -1
-7 -12 -6 -13 6 -4 8 6 24 10 37 9 12 -1 22 3 22 9 0 6 5 4 10 -4 5 -8 10 -10
10 -3 0 6 8 10 18 9 9 -2 20 2 24 8 5 8 8 7 8 -2 0 -10 5 -10 20 -2 11 6 25 8
30 5 6 -3 10 -1 10 5 0 6 4 9 9 5 5 -3 12 -1 16 4 4 7 15 7 31 1 19 -7 23 -7
18 2 -5 8 -2 9 9 5 10 -4 17 -2 17 4 0 6 6 9 14 6 7 -3 19 0 25 6 8 8 11 7 11
-3 1 -11 3 -11 11 3 5 9 15 17 20 17 6 0 7 -6 3 -12 -6 -10 -5 -10 8 -1 8 7
18 10 21 6 4 -3 7 -1 7 6 0 8 7 11 15 7 8 -3 15 -1 15 5 0 6 8 9 18 8 9 -1 30
3 45 9 15 7 33 11 40 9 7 -1 11 3 10 9 -1 6 13 10 32 9 18 0 31 3 29 7 -3 4 2
8 10 8 9 0 16 6 16 13 0 8 4 7 10 -3 6 -10 10 -11 10 -3 0 7 3 12 8 12 19 -3
33 2 27 10 -3 6 4 8 15 6 11 -2 20 0 20 6 0 5 3 8 8 7 4 -1 21 5 37 12 17 7
36 12 44 11 7 -1 10 2 6 8 -3 7 2 11 14 11 12 0 21 6 21 13 0 8 4 7 10 -3 6
-10 10 -11 10 -2 0 6 7 12 15 12 8 0 15 4 15 9 0 8 27 20 55 25 6 1 9 8 7 15
-1 7 2 10 7 7 5 -4 44 14 85 38 42 25 76 42 76 38 1 -4 7 4 15 18 8 14 14 19
15 11 0 -11 4 -9 15 5 8 10 15 15 15 11 0 -5 6 -2 14 5 30 29 57 48 66 48 6 0
10 5 10 12 0 6 3 9 6 5 3 -3 14 2 23 11 31 29 61 52 61 46 0 -3 16 11 36 30
20 20 41 33 47 29 5 -3 8 -2 5 3 -5 10 28 45 35 37 3 -2 8 5 12 16 3 12 10 19
15 16 5 -3 17 6 28 20 11 14 25 25 30 25 6 0 14 5 18 12 5 7 2 9 -7 4 -8 -4
-5 0 5 8 11 9 24 16 30 16 5 0 7 2 4 5 -6 7 84 100 95 97 7 -2 11 13 8 31 0 4
6 7 15 7 8 0 13 4 9 9 -3 5 4 12 15 16 11 4 18 11 15 16 -4 5 -2 9 3 9 5 0 15
11 22 25 7 13 18 21 23 18 6 -4 8 0 4 10 -4 12 -1 17 10 17 9 0 13 3 10 7 -4
3 2 12 13 20 11 8 20 21 20 29 0 8 5 14 10 14 6 0 10 7 10 16 0 9 5 12 12 8 8
-5 9 -2 5 9 -3 9 -3 16 1 14 4 -1 7 0 7 3 1 3 10 15 20 28 11 12 20 26 19 30
-1 12 21 30 30 24 5 -3 6 0 2 6 -3 6 0 17 8 25 8 8 12 17 9 21 -4 3 -1 6 6 6
7 0 9 5 6 10 -3 6 -1 10 5 10 6 0 8 5 5 10 -3 6 1 10 10 10 9 0 14 4 10 9 -3
5 0 13 6 16 5 4 8 14 5 22 -3 8 -2 12 3 9 7 -4 36 43 32 52 -1 1 5 10 14 18 8
9 13 20 10 25 -4 5 -1 9 4 9 6 0 10 6 8 13 -1 6 3 11 9 10 6 -1 11 5 12 13 1
8 3 21 4 29 1 8 7 16 14 19 7 3 11 16 10 30 -2 14 1 23 5 20 8 -5 13 10 10 29
0 4 4 7 10 7 6 0 9 9 6 20 -3 11 -1 18 4 14 5 -3 9 2 9 10 0 9 5 16 12 16 6 0
9 3 5 6 -3 3 3 29 14 56 10 27 17 54 14 59 -4 5 0 12 9 15 8 3 13 14 11 25 -2
10 1 19 7 19 6 0 8 9 5 20 -3 13 -1 18 6 13 6 -4 8 0 4 10 -3 9 -2 19 3 22 17
10 12 48 -5 41 -8 -3 -15 -2 -15 2 0 4 -12 8 -26 9 -15 0 -30 6 -34 13 -6 9
-9 9 -14 -1 -5 -11 -7 -11 -12 -1 -3 6 -18 12 -34 12 -16 0 -30 4 -32 9 -1 5
-12 11 -23 13 -11 1 -26 10 -33 18 -8 8 -11 9 -7 3 3 -8 -6 -6 -24 5 -17 9
-31 20 -31 25 0 4 -9 7 -21 7 -11 0 -17 5 -14 10 3 6 0 10 -7 10 -8 0 -34 19
-58 43 -25 23 -47 42 -50 42 -3 0 -4 3 -3 7 2 5 -5 8 -14 8 -9 0 -13 3 -10 6
4 4 -8 20 -26 35 -17 16 -28 29 -23 29 5 0 -1 9 -13 19 -12 11 -23 23 -24 28
-1 4 -6 7 -10 5 -4 -1 -7 3 -6 10 3 26 -1 39 -11 33 -6 -4 -7 1 -3 11 4 12 3
15 -5 10 -8 -5 -10 -2 -6 8 3 9 1 16 -6 16 -6 0 -9 4 -5 9 3 5 1 12 -5 16 -6
4 -8 11 -5 16 4 5 1 9 -5 9 -6 0 -8 5 -5 10 3 6 2 10 -4 10 -5 0 -8 9 -6 20 2
11 0 20 -6 20 -5 0 -9 12 -9 26 0 14 -5 35 -11 46 -9 16 -8 19 2 13 8 -6 10
-4 3 6 -4 8 -9 20 -11 28 -1 8 -4 26 -8 39 -4 16 -2 21 6 17 8 -5 7 -1 -1 15
-9 18 -9 24 0 30 9 5 9 9 1 14 -6 4 -9 11 -7 15 3 4 6 28 7 54 2 26 8 47 13
47 6 0 4 5 -4 10 -11 7 -11 10 -2 10 7 0 10 5 6 11 -3 6 0 15 7 20 12 7 11 9
-1 9 -11 0 -12 2 -3 8 7 4 15 23 18 42 3 19 11 37 17 41 6 4 7 12 4 18 -4 6
-4 11 1 11 4 0 16 20 26 45 11 25 23 45 29 45 5 0 6 5 3 10 -3 6 -1 10 4 10 6
0 11 5 11 10 0 6 8 19 18 29 33 37 42 50 42 61 0 6 4 8 10 5 5 -3 15 5 21 19
7 14 15 23 20 21 4 -3 11 4 14 16 4 12 12 18 20 15 8 -3 17 3 20 15 4 10 11
17 16 14 5 -4 9 -1 9 4 0 6 7 11 15 11 8 0 15 5 15 10 0 6 7 10 15 10 8 0 15
5 15 11 0 5 4 8 9 5 5 -3 12 1 15 10 4 9 9 14 13 10 3 -3 15 2 26 11 11 10 17
13 13 6 -4 -8 2 -8 20 2 15 8 32 11 37 8 6 -3 7 -1 3 5 -5 8 0 12 13 12 10 0
22 6 24 13 4 9 6 9 6 -1 1 -10 6 -10 22 -2 11 6 32 12 47 13 23 2 27 7 28 35
1 17 -3 32 -8 32 -5 0 -7 4 -3 9 3 5 1 12 -5 16 -6 4 -8 11 -5 16 4 5 1 9 -4
9 -6 0 -11 5 -11 11 0 5 6 7 13 3 6 -4 3 2 -7 14 -11 12 -16 22 -11 22 4 0 2
7 -5 15 -6 8 -8 20 -4 26 4 8 3 9 -4 5 -7 -4 -12 -2 -12 3 0 19 -2 26 -13 46
-6 11 -12 26 -13 33 -1 7 -12 28 -23 48 -12 19 -17 32 -11 29 6 -3 7 1 4 9 -3
9 -10 13 -15 10 -8 -4 -14 17 -10 39 0 4 -3 7 -8 7 -9 0 -37 60 -33 73 1 4 -2
7 -8 7 -6 0 -9 6 -8 13 2 6 -3 11 -10 9 -6 -1 -12 1 -11 5 2 16 -14 53 -23 53
-5 0 -6 5 -3 10 3 6 1 10 -5 10 -6 0 -8 5 -5 10 3 6 1 10 -4 10 -6 0 -11 7
-11 15 0 8 -4 15 -10 15 -5 0 -10 7 -10 15 0 8 -5 15 -12 15 -6 0 -9 3 -5 6 5
6 0 15 -31 49 -7 8 -11 15 -7 15 3 0 -5 10 -18 23 -13 12 -22 28 -20 35 3 6
-4 12 -14 13 -10 0 -13 3 -7 5 7 3 -3 19 -22 40 -19 19 -34 39 -34 44 0 6 -8
10 -17 11 -12 0 -14 2 -5 6 10 4 8 9 -7 20 -12 8 -19 19 -16 24 4 5 0 9 -8 9
-7 0 -20 11 -27 25 -7 13 -17 22 -22 19 -4 -3 -8 1 -8 9 0 8 -13 25 -30 38
-16 13 -30 29 -30 36 0 6 -9 15 -20 18 -11 3 -20 13 -20 21 0 8 -4 14 -8 14
-4 0 -40 31 -80 69 -40 39 -72 67 -72 63 0 -4 -11 5 -24 21 -13 15 -27 27 -31
27 -4 0 -16 10 -27 23 -11 12 -16 16 -12 8 5 -9 3 -12 -4 -7 -7 4 -12 14 -12
22 0 8 -6 14 -13 14 -7 0 -23 9 -35 20 -12 11 -26 20 -32 20 -5 0 -10 4 -10 8
0 5 -12 15 -27 23 -16 8 -39 24 -52 36 -14 12 -28 20 -33 17 -4 -3 -8 0 -8 5
0 6 -5 11 -11 11 -7 0 -18 8 -26 18 -10 11 -12 12 -8 2 5 -13 4 -13 -7 0 -7 9
-28 22 -45 29 -18 7 -30 18 -26 24 3 5 1 7 -5 3 -6 -3 -13 -2 -17 4 -4 6 -11
8 -16 5 -5 -4 -9 -1 -9 4 0 6 -7 11 -15 11 -8 0 -15 5 -15 11 0 5 -4 8 -9 4
-5 -3 -17 2 -25 11 -9 8 -16 12 -16 7 0 -4 -5 0 -11 9 -5 9 -16 15 -23 12 -7
-3 -21 2 -30 11 -9 9 -16 14 -16 10 0 -3 -13 1 -30 10 -16 9 -30 12 -30 8 0
-5 -4 -2 -9 6 -5 8 -20 16 -32 18 -13 2 -26 7 -29 11 -5 7 -27 14 -47 15 -7 0
-13 4 -13 9 0 4 -5 8 -11 8 -5 0 -7 -5 -3 -12 4 -7 3 -8 -4 -4 -7 4 -12 14
-12 23 0 12 -3 13 -13 5 -10 -9 -19 -8 -34 3 -11 8 -23 11 -27 8 -3 -3 -6 -2
-6 3 0 5 -10 10 -22 11 -11 1 -25 8 -29 15 -7 10 -9 10 -9 -2 0 -13 -1 -13
-10 0 -5 8 -10 11 -10 6 0 -5 -8 -2 -17 5 -15 12 -16 12 -8 -1 8 -13 6 -13 -8
-2 -9 8 -22 10 -28 6 -8 -5 -9 -3 -4 6 6 10 4 12 -8 7 -10 -3 -17 -2 -17 3 0
5 -9 7 -20 5 -11 -2 -20 -1 -20 4 0 4 -11 8 -25 9 -48 3 -55 5 -55 16 0 6 -4
5 -9 -2 -7 -12 -11 -12 -21 0 -8 8 -26 12 -43 10 -21 -3 -28 -1 -23 7 5 8 0 8
-18 1 -17 -6 -26 -6 -26 0 0 6 -18 10 -39 10 -22 0 -43 5 -46 10 -4 7 -12 7
-25 0 -13 -7 -21 -7 -25 0 -4 6 -11 8 -16 5 -5 -4 -12 1 -15 9 -5 12 -9 13
-19 3 -7 -7 -10 -16 -8 -21 3 -5 -8 2 -25 14 -26 19 -34 21 -47 10 -12 -10
-15 -10 -15 0 0 9 -4 9 -17 -1 -11 -10 -14 -10 -9 -1 4 6 3 12 -1 12 -5 0 -15
-6 -22 -12 -11 -10 -13 -10 -7 0 4 7 2 12 -6 12 -8 0 -20 -6 -27 -12 -11 -10
-13 -10 -7 0 5 9 -6 12 -46 12 -30 0 -60 -6 -67 -12 -11 -10 -13 -10 -7 0 5 9
-4 12 -34 12 -25 0 -39 -4 -35 -10 3 -5 1 -10 -4 -10 -6 0 -11 5 -11 11 0 8
-6 7 -17 -2 -14 -12 -16 -12 -9 0 6 9 4 12 -5 9 -8 -3 -14 -10 -14 -15 0 -6
-4 -15 -8 -20 -5 -4 -8 -3 -7 2 4 20 0 35 -10 35 -5 0 -7 -8 -4 -17 5 -15 3
-15 -10 1 -14 17 -16 17 -16 4z m66 -1318 c2 0 3 5 2 12 -2 9 37 12 150 13 85
0 156 -3 158 -7 3 -4 15 -3 28 2 15 5 27 5 34 -2 6 -6 22 -10 36 -10 14 0 26
-4 26 -8 0 -4 7 -11 16 -14 8 -3 12 -2 9 4 -3 6 1 10 9 10 8 0 17 -4 21 -10 3
-5 12 -7 20 -3 8 3 15 1 15 -5 0 -6 11 -9 25 -7 14 1 25 -2 25 -7 0 -6 7 -8
15 -5 8 4 17 2 20 -4 4 -5 11 -7 16 -4 5 4 9 2 9 -4 0 -6 7 -8 15 -5 8 4 15 1
15 -6 0 -6 4 -9 9 -5 5 3 13 0 16 -6 4 -5 13 -8 21 -5 7 3 18 -3 23 -12 8 -13
10 -13 11 -3 0 11 4 10 16 -5 8 -10 12 -12 8 -4 -4 8 5 4 21 -10 16 -14 25
-19 21 -13 -5 9 -2 11 8 7 8 -3 17 -12 20 -20 3 -7 12 -11 21 -8 8 3 15 1 15
-6 0 -6 5 -8 10 -5 6 3 10 1 10 -4 0 -6 7 -11 15 -11 8 0 15 -5 15 -11 0 -5 4
-8 9 -5 5 3 21 -7 37 -22 15 -15 24 -20 19 -12 -4 8 3 5 17 -7 13 -13 30 -23
37 -23 7 0 9 -4 6 -10 -5 -8 9 -15 18 -8 1 1 26 -20 56 -48 29 -27 59 -48 65
-46 6 2 8 1 4 -3 -8 -8 28 -45 44 -45 6 0 8 -3 5 -7 -4 -3 2 -12 13 -20 11 -8
20 -21 20 -29 0 -8 3 -13 8 -11 4 3 16 -5 27 -16 12 -12 14 -17 5 -13 -8 4 -3
-3 11 -16 15 -13 32 -33 38 -46 7 -12 15 -20 19 -18 5 3 9 -4 9 -16 1 -11 10
-27 20 -36 10 -10 24 -29 31 -44 6 -16 16 -28 22 -28 5 0 10 -7 10 -15 0 -19
20 -56 40 -72 11 -9 12 -12 2 -13 -10 0 -9 -4 3 -16 9 -9 14 -23 11 -30 -3 -8
4 -18 15 -24 11 -6 17 -15 14 -19 -3 -5 2 -25 10 -45 8 -20 12 -36 8 -36 -5 0
-2 -4 4 -8 7 -4 14 -17 16 -27 1 -11 6 -25 10 -31 3 -6 8 -25 9 -43 1 -17 5
-31 8 -31 3 0 6 -8 7 -17 1 -10 4 -36 8 -58 7 -39 10 -434 5 -507 -2 -21 -7
-38 -12 -38 -5 0 -4 -10 3 -21 6 -12 7 -19 1 -15 -5 3 -13 -1 -16 -10 -4 -10
-2 -13 7 -8 8 6 8 3 -1 -9 -8 -9 -11 -21 -7 -27 3 -5 2 -10 -4 -10 -6 0 -8 -6
-5 -14 3 -8 1 -17 -5 -21 -6 -3 -11 -15 -11 -25 0 -10 -5 -31 -11 -47 -6 -15
-10 -29 -10 -30 0 -2 -8 -19 -19 -39 -11 -19 -15 -32 -8 -28 10 6 11 5 1 -8
-7 -8 -10 -18 -6 -22 4 -4 0 -4 -9 -1 -13 5 -16 2 -13 -13 2 -12 -3 -23 -11
-26 -9 -3 -12 -11 -9 -17 4 -5 -1 -17 -11 -25 -11 -9 -13 -13 -7 -9 9 4 11 1
7 -10 -4 -9 -9 -14 -12 -11 -3 3 -17 -18 -31 -47 -25 -49 -45 -77 -83 -118 -9
-9 -14 -20 -10 -23 3 -3 0 -6 -7 -6 -7 0 -9 -4 -6 -10 3 -5 -1 -10 -9 -10 -9
0 -16 -4 -16 -9 0 -6 -29 -40 -65 -76 -36 -36 -65 -71 -65 -78 0 -8 -4 -7 -10
3 -6 10 -10 11 -10 3 0 -7 -9 -22 -20 -33 -11 -11 -20 -17 -20 -13 0 3 -9 -4
-20 -17 -11 -13 -20 -20 -20 -16 0 4 -6 1 -14 -6 -7 -7 -24 -20 -36 -28 -12
-8 -28 -20 -35 -27 -7 -7 -15 -9 -19 -6 -3 4 -6 2 -6 -3 0 -5 -21 -21 -47 -34
-27 -14 -52 -31 -56 -38 -7 -10 -12 -10 -23 -1 -11 9 -14 8 -14 -5 0 -9 -3
-15 -7 -15 -20 3 -34 -2 -29 -10 4 -5 -2 -8 -11 -7 -10 2 -21 -1 -24 -6 -3 -5
-12 -11 -20 -12 -40 -8 -69 -19 -69 -27 0 -4 -9 -6 -20 -4 -11 2 -20 0 -20 -4
0 -4 -6 -8 -12 -8 -25 -1 -43 -8 -56 -23 -8 -8 -11 -9 -7 -2 7 14 -1 14 -30 3
-12 -5 -26 -4 -34 3 -11 8 -13 8 -7 -1 4 -8 1 -13 -9 -13 -9 0 -14 -4 -11 -9
8 -12 -27 -8 -36 4 -5 6 -8 6 -8 -1 0 -7 -9 -14 -20 -17 -11 -3 -18 -2 -15 2
2 4 -2 8 -10 8 -8 0 -14 -3 -13 -6 2 -19 -4 -24 -12 -11 -7 10 -13 11 -17 4
-9 -12 -303 -14 -303 -2 0 5 -9 4 -20 -2 -16 -9 -20 -8 -21 7 0 11 -3 13 -6 6
-2 -7 -9 -13 -14 -13 -6 0 -7 5 -3 11 4 8 0 9 -15 4 -13 -4 -21 -2 -21 6 0 8
-3 9 -14 0 -10 -9 -16 -8 -26 4 -9 11 -15 13 -20 5 -5 -8 -11 -8 -21 2 -8 7
-23 13 -34 13 -11 0 -25 4 -32 8 -7 5 -17 6 -23 2 -5 -3 -10 -1 -10 5 0 6 -4
8 -10 5 -5 -3 -10 -2 -10 3 0 6 -7 13 -16 16 -14 5 -15 4 -4 -9 11 -13 10 -14
-4 -9 -9 3 -16 10 -16 16 0 5 -6 8 -12 6 -7 -1 -23 3 -35 10 -13 7 -23 9 -23
5 0 -4 -5 0 -11 9 -5 9 -16 15 -23 12 -8 -3 -17 -1 -21 5 -3 6 -15 11 -26 11
-11 0 -17 5 -14 10 3 6 -3 10 -14 10 -11 0 -26 7 -34 15 -8 8 -17 11 -21 8 -3
-4 -6 -1 -6 6 0 8 -6 11 -16 7 -8 -3 -12 -2 -9 4 3 6 -1 10 -9 10 -9 0 -16 5
-16 11 0 5 -4 8 -9 4 -5 -3 -18 5 -28 17 -10 13 -25 24 -33 26 -8 2 -22 10
-31 18 -9 8 -19 11 -24 7 -4 -5 -5 -3 -1 4 4 7 -3 17 -16 24 -31 17 -48 35
-40 44 4 4 2 5 -4 3 -6 -1 -30 14 -52 34 -22 20 -43 34 -47 30 -4 -4 -6 -2 -5
3 5 22 -1 35 -14 35 -13 0 -31 27 -28 43 1 4 -2 6 -7 5 -10 -3 -79 78 -94 110
-6 12 -15 22 -20 22 -6 0 -8 3 -4 6 5 6 1 13 -29 47 -13 15 -28 49 -26 60 1 4
-2 7 -8 7 -5 0 -10 7 -10 15 0 8 -5 15 -11 15 -6 0 -9 7 -5 15 3 8 1 15 -5 15
-6 0 -7 5 -4 10 3 6 2 10 -2 10 -5 0 -14 9 -21 21 -8 12 -9 18 -4 15 6 -3 1
13 -10 36 -12 24 -21 49 -21 56 0 6 -5 12 -10 12 -5 0 -7 9 -4 20 4 14 0 20
-11 20 -14 0 -14 2 -3 9 9 6 10 11 2 15 -6 4 -11 18 -11 32 0 13 -6 24 -12 24
-9 0 -8 4 2 10 12 7 12 10 1 10 -7 0 -11 6 -8 15 4 8 2 17 -3 20 -4 3 -7 13
-6 23 2 9 -2 20 -8 24 -8 5 -8 13 1 27 9 15 10 22 1 27 -7 5 -8 3 -3 -6 5 -8
4 -11 -3 -6 -6 4 -9 13 -5 21 3 9 -1 15 -8 15 -11 0 -11 3 1 10 13 9 13 10 0
10 -13 0 -13 1 0 10 8 5 10 10 4 10 -12 0 -14 268 -1 287 4 6 2 15 -3 18 -7 5
-5 12 7 22 10 8 12 12 6 8 -7 -3 -13 -1 -13 4 0 6 4 11 9 11 4 0 6 12 3 26 -3
19 -1 25 7 20 13 -8 11 15 -2 25 -5 3 -1 13 8 23 10 10 12 16 5 16 -8 0 -7 8
4 24 9 14 13 32 10 40 -3 9 -1 16 4 16 6 0 9 9 7 20 -2 11 2 26 10 34 8 7 12
16 9 19 -9 9 6 48 16 42 4 -3 7 3 6 12 -4 23 14 63 28 63 6 0 4 5 -4 10 -10 6
-11 10 -2 10 6 0 12 7 12 15 0 8 5 15 11 15 5 0 8 4 4 9 -3 5 -1 12 5 16 6 4
8 11 5 16 -4 5 -1 9 5 9 6 0 8 5 5 10 -3 6 -1 10 4 10 6 0 11 7 11 15 0 8 5
15 11 15 5 0 7 5 4 10 -3 6 1 13 9 16 9 3 13 10 11 15 -3 4 3 17 14 28 11 11
17 22 13 25 -3 3 1 6 8 6 7 0 11 3 7 6 -3 4 4 15 16 25 12 10 19 18 15 19 -8
0 -7 2 72 89 27 30 47 58 44 63 -3 5 -2 8 3 7 20 -4 34 2 28 12 -4 6 2 13 14
16 11 3 18 9 15 14 -3 5 -1 9 5 9 6 0 21 10 34 23 62 59 106 92 118 88 7 -2 9
1 5 8 -4 6 -1 11 9 11 8 0 18 7 21 15 4 8 10 12 15 9 5 -3 9 0 9 6 0 6 4 8 10
5 5 -3 15 3 21 14 7 10 19 17 26 14 7 -3 13 0 13 7 0 6 5 8 10 5 6 -3 13 1 16
9 3 9 10 13 15 10 5 -3 9 0 9 6 0 6 5 8 10 5 6 -3 10 -2 10 4 0 5 12 8 26 6
19 -2 24 1 19 12 -3 11 -1 13 10 9 8 -3 15 -1 15 4 0 6 3 9 8 9 18 -3 33 2 28
10 -3 4 6 6 21 3 19 -4 24 -2 18 7 -5 9 -1 12 11 10 11 -2 34 4 53 14 40 20
45 21 35 6 -3 -6 5 -3 20 6 14 10 26 14 26 10 0 -4 7 -2 15 5 12 10 15 10 16
-1 0 -10 2 -11 6 -1 2 6 9 10 14 6 5 -3 9 -1 9 5 0 5 9 8 20 6 11 -2 24 3 30
13 9 16 9 16 10 0 0 -20 2 -21 24 -12 9 3 12 12 8 22 -5 15 -4 15 12 0 9 -10
19 -18 22 -18z"/>
<path d="M4175 4670 c3 -5 1 -10 -5 -10 -6 0 -8 -5 -5 -10 3 -6 0 -13 -9 -16
-8 -3 -12 -12 -9 -21 3 -8 1 -18 -6 -22 -6 -4 -13 -21 -14 -38 -1 -17 -5 -29
-9 -26 -5 2 -8 -3 -8 -12 0 -10 -5 -13 -12 -9 -9 5 -9 2 1 -9 10 -13 10 -17 1
-17 -7 0 -10 -6 -7 -14 3 -8 1 -16 -5 -18 -6 -2 -11 -18 -12 -35 0 -17 -5 -31
-10 -30 -4 1 -10 -9 -12 -23 -3 -13 -9 -27 -16 -31 -6 -4 -8 -11 -4 -17 3 -6
1 -14 -5 -17 -5 -4 -8 -14 -5 -22 3 -8 1 -11 -4 -8 -6 3 -10 -3 -10 -14 0 -12
-6 -21 -12 -21 -9 0 -8 -4 2 -10 11 -7 11 -10 2 -10 -7 0 -10 -4 -7 -10 3 -5
1 -10 -5 -10 -6 0 -9 -4 -5 -9 3 -5 1 -12 -5 -16 -6 -4 -8 -11 -5 -16 4 -5 2
-9 -4 -9 -6 0 -8 -7 -5 -15 4 -8 1 -15 -6 -15 -6 0 -9 -4 -5 -9 3 -5 -1 -16
-9 -24 -8 -8 -13 -17 -10 -20 3 -3 -2 -19 -11 -36 -8 -17 -13 -31 -10 -31 3 0
0 -10 -7 -22 -7 -13 -13 -30 -13 -38 -1 -8 -6 -14 -12 -13 -13 3 -12 -29 2
-39 6 -4 1 -8 -9 -8 -11 0 -16 -3 -13 -7 4 -3 -1 -15 -10 -26 -10 -11 -12 -17
-5 -13 6 4 12 2 12 -3 0 -6 -4 -11 -9 -11 -5 0 -12 -7 -15 -16 -4 -10 -2 -13
7 -8 7 5 6 0 -3 -10 -8 -10 -15 -24 -16 -30 -3 -33 -5 -37 -12 -32 -4 2 -8 -3
-9 -12 -1 -9 -7 -30 -14 -47 -7 -16 -13 -38 -15 -49 -1 -10 -5 -21 -10 -25 -9
-6 -15 -24 -18 -51 0 -8 -10 -23 -20 -32 -10 -10 -14 -18 -8 -18 5 0 8 -9 5
-20 -3 -11 -10 -17 -16 -13 -6 4 -8 -4 -5 -20 3 -15 1 -24 -3 -21 -5 3 -9 -4
-9 -15 0 -11 -5 -23 -10 -26 -6 -4 -8 -11 -5 -16 4 -5 1 -9 -5 -9 -6 0 -9 -4
-6 -9 7 -10 109 -14 149 -5 15 3 25 9 22 14 -3 5 -1 11 5 15 6 4 8 11 5 16 -4
5 -1 9 5 9 6 0 8 5 5 10 -4 6 -1 17 5 25 7 8 9 15 5 15 -4 0 0 11 9 25 9 14
14 30 11 35 -3 6 -1 10 4 10 6 0 11 9 11 19 0 11 5 23 10 26 6 4 8 10 5 15 -3
5 -1 11 5 15 6 4 8 11 5 16 -4 5 -2 9 2 9 5 0 9 10 10 22 1 11 6 24 10 27 4 3
9 12 11 19 1 6 3 18 5 25 1 6 6 15 10 18 4 3 9 16 10 27 1 12 5 22 10 22 4 0
5 5 1 11 -3 6 -2 14 4 18 7 4 13 16 15 26 1 11 10 35 19 53 10 19 12 29 5 25
-7 -4 -6 0 2 10 7 9 10 17 7 17 -4 0 0 7 8 16 9 8 14 20 11 25 -4 5 -2 9 3 9
5 0 9 7 10 15 1 8 3 22 4 30 1 8 5 15 10 15 4 0 7 3 6 8 -1 4 3 17 10 30 7 12
9 22 5 22 -4 0 -1 5 7 10 13 9 13 10 0 10 -13 1 -13 2 1 13 9 7 17 15 17 20 1
4 2 8 3 10 0 1 2 9 4 17 8 37 10 45 17 50 4 3 9 17 11 30 2 13 9 26 14 27 6 2
9 13 6 23 -3 12 0 20 6 20 7 0 9 5 6 10 -3 6 -1 10 5 10 6 0 8 5 5 10 -4 6 -2
16 3 23 5 7 12 24 16 40 3 15 10 27 15 27 5 0 7 9 4 20 -3 12 0 20 7 20 7 0
10 7 6 15 -3 8 -1 15 4 15 6 0 9 3 9 8 -4 25 2 42 14 36 6 -4 9 -4 5 1 -4 4
-2 15 5 23 10 13 9 14 -1 8 -7 -4 -3 9 8 29 11 20 18 40 15 45 -3 4 0 10 7 12
7 3 -27 5 -76 6 -56 2 -85 -1 -81 -8z"/>
<path d="M3502 4518 c-7 -7 -12 -8 -12 -2 0 5 -4 4 -8 -3 -4 -6 -14 -13 -22
-15 -8 -2 -21 -10 -28 -18 -12 -13 -13 -13 -7 0 4 10 2 9 -8 -2 -8 -10 -17
-15 -20 -11 -4 3 -7 1 -7 -6 0 -7 -4 -10 -9 -7 -5 4 -11 1 -13 -4 -2 -6 -13
-12 -25 -12 -12 -1 -19 -7 -16 -14 3 -8 -3 -11 -13 -10 -10 2 -27 -5 -38 -15
-10 -10 -23 -16 -28 -13 -4 3 -8 1 -8 -4 0 -9 -40 -25 -48 -19 -2 1 -8 -6 -13
-16 -6 -9 -14 -15 -20 -12 -5 4 -9 1 -9 -5 0 -7 -6 -10 -14 -7 -7 3 -20 -3
-29 -14 -9 -10 -24 -19 -32 -19 -8 0 -15 -5 -15 -11 0 -5 -4 -7 -10 -4 -5 3
-10 1 -10 -5 0 -6 -4 -9 -9 -6 -5 3 -14 -1 -21 -9 -7 -8 -16 -12 -21 -9 -5 3
-9 0 -9 -5 0 -6 -7 -11 -15 -11 -8 0 -15 -5 -15 -12 0 -6 -3 -9 -6 -5 -4 3
-13 -1 -21 -9 -9 -8 -22 -13 -29 -10 -8 3 -14 -1 -14 -10 0 -8 -4 -13 -9 -10
-5 3 -21 -4 -37 -17 -16 -12 -29 -20 -29 -18 0 3 -9 0 -20 -6 -18 -10 -20 -23
-21 -127 -1 -119 5 -138 45 -148 8 -2 23 -11 33 -21 10 -10 23 -15 28 -12 6 4
10 1 10 -4 0 -6 7 -11 15 -11 8 0 15 -6 15 -12 0 -10 2 -10 9 0 7 11 9 11 14
-2 4 -9 13 -16 22 -16 8 0 15 -4 15 -8 0 -5 23 -18 50 -30 28 -12 50 -27 50
-33 0 -6 7 -9 15 -5 8 3 15 1 15 -4 0 -6 6 -10 14 -10 8 0 22 -7 30 -16 9 -8
20 -13 25 -10 5 3 12 -1 15 -10 3 -8 10 -12 16 -9 5 3 10 1 10 -4 0 -6 9 -11
21 -11 11 0 17 -4 14 -10 -3 -5 3 -10 14 -10 11 0 24 -7 29 -16 5 -9 11 -15
13 -13 9 5 49 -13 49 -22 0 -6 5 -7 10 -4 6 3 10 1 10 -5 0 -6 8 -10 18 -8 10
2 16 -2 14 -10 -1 -8 2 -11 8 -7 6 3 17 -1 26 -9 9 -9 20 -14 25 -11 5 4 9 0
9 -8 0 -7 6 -14 13 -15 6 0 21 -3 32 -5 18 -4 21 0 20 34 0 21 -4 39 -10 39
-7 0 -7 3 0 8 14 10 14 52 1 52 -6 0 -4 5 4 10 8 5 10 10 4 10 -8 0 -9 13 -4
40 4 22 4 40 -1 40 -4 0 -6 9 -4 20 3 16 -2 20 -21 20 -13 0 -24 5 -24 10 0 6
-6 10 -14 10 -8 0 -17 6 -19 13 -4 8 -6 8 -6 -3 -1 -10 -6 -8 -17 8 -8 12 -22
22 -31 22 -9 0 -36 12 -60 26 -25 14 -47 23 -50 20 -3 -2 -14 4 -26 14 -11 11
-35 24 -54 31 -19 6 -30 15 -27 21 4 6 2 8 -4 5 -15 -10 -43 3 -35 16 3 6 1 7
-5 3 -6 -4 -26 1 -44 11 -18 9 -36 18 -40 19 -5 1 -11 3 -15 4 -5 1 -10 2 -13
2 -11 -1 -9 38 2 44 7 5 8 2 3 -7 -7 -11 -6 -12 7 -2 8 7 19 9 23 5 5 -4 5 -2
2 4 -7 13 19 28 33 19 4 -3 11 2 14 11 4 9 9 14 13 11 3 -4 12 1 19 11 11 14
13 14 14 2 1 -12 3 -11 14 3 8 10 17 18 20 18 16 1 66 25 66 32 0 4 4 6 9 2 5
-3 12 -1 16 5 4 6 11 8 16 5 5 -4 9 -1 9 5 0 6 5 8 10 5 6 -3 10 -1 10 4 0 6
5 11 12 11 6 0 20 8 31 18 11 9 17 11 13 5 -10 -18 2 -16 20 2 9 8 24 15 34
15 11 0 24 8 29 18 6 9 11 13 11 8 0 -5 7 -3 15 4 8 7 15 10 15 6 0 -3 8 2 18
12 14 13 16 21 8 31 -8 11 -8 13 2 7 6 -4 12 -3 12 3 0 5 -6 12 -12 14 -10 4
-10 6 0 6 10 1 10 6 1 22 -8 15 -8 19 0 15 6 -4 11 -3 11 3 0 5 -6 12 -12 14
-10 4 -10 6 0 6 10 1 10 6 2 21 -9 16 -8 20 7 21 16 0 16 1 -2 9 -11 5 -14 9
-6 9 11 1 11 4 1 16 -7 8 -8 15 -3 15 5 0 9 9 9 20 0 11 -4 20 -9 20 -4 0 -5
5 -2 10 9 14 -8 13 -23 -2z"/>
<path d="M4509 4518 c-4 -85 -2 -129 6 -132 7 -3 7 -5 0 -5 -5 -1 -9 -18 -8
-38 1 -21 2 -47 2 -59 1 -15 16 -27 53 -45 28 -13 53 -23 55 -21 3 2 12 -5 21
-15 9 -11 25 -17 35 -15 9 2 17 0 17 -5 0 -4 24 -19 54 -33 30 -13 52 -28 50
-31 -2 -4 4 -6 13 -5 10 2 24 -4 31 -13 8 -9 11 -10 7 -3 -10 19 2 14 25 -10
11 -12 20 -16 20 -9 0 9 3 9 14 -1 8 -7 12 -16 10 -20 -3 -4 5 -5 16 -3 11 2
20 -1 20 -7 0 -5 7 -8 15 -4 8 3 15 2 15 -3 0 -5 14 -14 30 -21 17 -7 30 -17
30 -22 0 -5 -4 -6 -10 -3 -5 3 -10 1 -10 -5 0 -7 -5 -10 -12 -8 -6 2 -20 -4
-30 -14 -10 -10 -23 -16 -28 -13 -6 4 -10 1 -10 -4 0 -6 -9 -11 -20 -11 -11 0
-20 -5 -20 -10 0 -6 -3 -9 -7 -9 -22 4 -33 -2 -27 -13 5 -8 2 -9 -9 -5 -10 3
-17 2 -17 -4 0 -6 -4 -8 -8 -5 -5 3 -18 -3 -28 -13 -11 -9 -25 -16 -32 -13 -6
2 -12 -1 -12 -8 0 -6 -4 -8 -10 -5 -5 3 -10 1 -10 -6 0 -7 -3 -9 -7 -6 -3 4
-15 0 -25 -10 -10 -9 -18 -13 -18 -9 0 3 -18 -5 -40 -19 -22 -14 -46 -25 -55
-25 -8 0 -15 -5 -15 -10 0 -6 -3 -9 -7 -8 -11 2 -46 -14 -58 -26 -11 -12 -12
-116 -2 -133 4 -6 1 -14 -5 -16 -10 -4 -9 -8 2 -16 13 -10 13 -11 0 -11 -12 0
-13 -2 -1 -9 11 -7 11 -9 0 -14 -8 -3 -9 -6 -4 -6 7 -1 9 -16 7 -38 -4 -32 -3
-36 10 -25 8 6 19 8 23 4 5 -4 5 -2 1 5 -6 11 29 30 47 25 4 -1 7 3 7 9 0 5 5
7 10 4 6 -3 13 1 16 9 3 9 10 13 15 10 5 -3 9 0 9 5 0 6 9 11 20 11 10 0 23 7
28 16 5 9 13 16 18 16 13 1 38 11 44 17 3 4 22 15 43 26 20 11 37 23 37 27 0
4 6 5 13 2 7 -2 22 4 34 15 11 11 24 17 27 14 3 -4 6 -1 6 6 0 7 5 9 10 6 6
-3 10 -1 10 5 0 6 5 8 10 5 6 -3 10 -1 10 5 0 6 5 8 10 5 6 -3 10 -1 10 6 0 7
3 10 6 6 4 -3 13 1 21 9 8 8 18 12 23 9 4 -3 11 2 14 11 3 9 13 14 20 11 8 -3
17 1 20 9 3 9 10 13 15 10 5 -3 12 1 15 10 3 8 10 13 15 9 6 -3 20 5 32 17 12
13 19 17 15 11 -4 -7 -4 -13 -1 -13 4 0 13 6 20 13 37 32 46 38 55 32 6 -3 10
-1 10 4 0 6 6 10 13 8 9 -1 13 30 15 123 3 124 2 126 -20 127 -12 1 -27 8 -33
16 -5 8 -16 12 -22 10 -7 -3 -13 0 -13 5 0 6 -10 14 -22 18 -13 4 -39 19 -57
33 -19 14 -32 20 -27 14 10 -18 0 -16 -20 4 -9 10 -23 18 -31 19 -8 2 -23 10
-32 18 -10 9 -21 13 -24 9 -4 -3 -7 -2 -7 3 0 6 -16 16 -35 24 -19 7 -32 17
-29 22 3 4 -2 5 -10 2 -9 -3 -16 -1 -16 6 0 6 -4 9 -9 6 -5 -4 -11 -1 -13 4
-2 6 -13 12 -25 13 -12 0 -19 5 -17 9 3 4 0 8 -5 8 -22 0 -26 2 -34 16 -5 8
-12 12 -18 9 -5 -4 -9 -1 -9 4 0 6 -6 11 -14 11 -8 0 -17 6 -19 13 -4 9 -6 9
-6 -1 -1 -10 -4 -10 -15 0 -8 7 -12 15 -11 18 2 3 -6 7 -17 7 -12 1 -24 6 -27
10 -10 13 -50 33 -66 33 -9 0 -13 5 -10 10 3 6 -3 10 -14 10 -12 0 -21 5 -21
10 0 15 -30 12 -31 -2z"/>
</g>
</svg>
